<svg width="24" height="24" viewBox="0 0 24 24" fill="none" xmlns="http://www.w3.org/2000/svg">
<path fill-rule="evenodd" clip-rule="evenodd" d="M4 7C4 5.89543 4.89543 5 6 5H18C19.1046 5 20 5.89543 20 7V20C20 21.1046 19.1046 22 18 22H6C4.89543 22 4 21.1046 4 20V7ZM18 7H6V20H18V7Z" fill="black"/>
<path fill-rule="evenodd" clip-rule="evenodd" d="M9.697 17.7171C9.30573 18.0976 8.68007 18.0943 8.29289 17.7071C7.90237 17.3166 7.90237 16.6834 8.29289 16.2929L8.99994 16.9999C8.29289 16.2929 8.29324 16.2925 8.2936 16.2922L8.29432 16.2915L8.29585 16.2899L8.29922 16.2866L8.30713 16.2789L8.32778 16.2592C8.34367 16.2443 8.36387 16.2259 8.38837 16.2045C8.43735 16.1616 8.5037 16.1066 8.5875 16.0438C8.75496 15.9182 8.99328 15.7603 9.30279 15.6056C9.92507 15.2944 10.8272 15 12 15C13.1728 15 14.0749 15.2944 14.6972 15.6056C15.0067 15.7603 15.245 15.9182 15.4125 16.0438C15.4963 16.1066 15.5627 16.1616 15.6116 16.2045C15.6361 16.2259 15.6563 16.2443 15.6722 16.2592L15.6929 16.2789L15.7008 16.2866L15.7041 16.2899L15.7057 16.2915L15.7064 16.2922C15.7068 16.2925 15.7071 16.2929 15 17L15.7071 16.2929C16.0976 16.6834 16.0976 17.3166 15.7071 17.7071C15.3199 18.0943 14.6943 18.0976 14.303 17.7171C14.303 17.7171 14.303 17.7171 14.303 17.7171C14.3015 17.7157 14.2987 17.7132 14.2946 17.7096C14.2811 17.6978 14.2537 17.6747 14.2125 17.6437C14.13 17.5818 13.9933 17.4897 13.8028 17.3944C13.4251 17.2056 12.8272 17 12 17C11.1728 17 10.5749 17.2056 10.1972 17.3944C10.0067 17.4897 9.87004 17.5818 9.7875 17.6437C9.7463 17.6747 9.7189 17.6978 9.70538 17.7096C9.70131 17.7132 9.69852 17.7157 9.697 17.7171C9.697 17.7171 9.697 17.7171 9.697 17.7171ZM14.2943 17.7085C14.2942 17.7084 14.2941 17.7083 14.294 17.7082L14.2942 17.7084L14.2943 17.7085ZM14.2936 17.7078C14.2936 17.7078 14.2936 17.7078 14.2936 17.7078L14.2937 17.7079C14.2936 17.7078 14.2936 17.7078 14.2936 17.7078Z" fill="black"/>
<path fill-rule="evenodd" clip-rule="evenodd" d="M12 4C10.8954 4 10 4.89543 10 6H8C8 3.79086 9.79086 2 12 2C14.2091 2 16 3.79086 16 6H14C14 4.89543 13.1046 4 12 4Z" fill="black"/>
<path fill-rule="evenodd" clip-rule="evenodd" d="M10 12C10 10.8954 10.8954 10 12 10C13.1046 10 14 10.8954 14 12C14 13.1046 13.1046 14 12 14C10.8954 14 10 13.1046 10 12Z" fill="black"/>
</svg>
