<svg xmlns="http://www.w3.org/2000/svg" viewBox="0 0 64 64"><defs><style>.cls-1{fill:#272835;}</style></defs><title>8-Rate</title><g id="_8-Rate" data-name="8-Rate"><path class="cls-1" d="M54,0H10A10,10,0,0,0,0,10V54A10,10,0,0,0,10,64H54A10,10,0,0,0,64,54V10A10,10,0,0,0,54,0Zm8,54a8,8,0,0,1-8,8H10a8,8,0,0,1-8-8V10a8,8,0,0,1,8-8H54a8,8,0,0,1,8,8Z"/><path class="cls-1" d="M33,8V5H31V8A24,24,0,0,0,31,56v3h2V56A24,24,0,0,0,33,8ZM31,47.95A10,10,0,0,1,22,38H20A12,12,0,0,0,31,49.95v4A22,22,0,0,1,31,10Zm2,6V38.05A10,10,0,0,1,42,48h2A12,12,0,0,0,33,36.05V10A22,22,0,0,1,33,54Z"/><path class="cls-1" d="M22,30a5,5,0,1,0-5-5A5,5,0,0,0,22,30Zm0-8a3,3,0,1,1-3,3A3,3,0,0,1,22,22Z"/><path class="cls-1" d="M42,20a5,5,0,1,0,5,5A5,5,0,0,0,42,20Zm0,8a3,3,0,1,1,3-3A3,3,0,0,1,42,28Z"/><path class="cls-1" d="M10,7h2V5H10C8.27,5,5,6.25,5,11H7C7,7.17,9.7,7,10,7Z"/><rect class="cls-1" x="5" y="13" width="2" height="2"/></g></svg>